# xmcd
#
# Track frame offsets:
# 225
# 16951
# 35073
# 53278
# 71156
# 84948
# 97521
# 106113
# 120122
# 137295
# 156725
# 166264
# 183592
# 193750
# 202926
# 209956
#
# Disc length: 2925 seconds
#
#
# Revision: 0
# Processed by: cddbd v1.5.2PL0 Copyright (c) Steve Scherf et al.
# Submitted via: FreeRIP 2.931 
#
DISCID=ce0b6a10
DTITLE=Various Artist - All Time Country Christmas
DYEAR=1900
DGENRE=Country
TTITLE0=Willie Nelson - Pretty Paper
TTITLE1=Bill Anderson - It Came Upon A Midnight Clear
TTITLE2=Jean Shepard - Hark! The Herals Angels Sing
TTITLE3=Donna Fargo - Oh Little Town Of Bethlehem
TTITLE4=Waylon Jennings - Away In A Manger
TTITLE5=Johnny Cash - Here Was a Man
TTITLE6=Gene Autry - Frosty The Snowman
TTITLE7=Nashville Session Singers - Twelve Days Of Christmas
TTITLE8=Kenny Rogers - Pretty Little Baby Child
TTITLE9=Glen Champel - Have Yourself A Merry Little Christmas
TTITLE10=Charly Pride - Christmas In My Home Town
TTITLE11=Ronnie Milsap - Holy Night
TTITLE12=Merle Haggard - Santa Claus And Popcorn
TTITLE13=Jim Reeves - O Comme All Ye Faithful
TTITLE14=The Everly Brothers - Deck The Halls With Boughs
TTITLE15=Patti Page - Jingle Bells
EXTD=
EXTT0=
EXTT1=
EXTT2=
EXTT3=
EXTT4=
EXTT5=
EXTT6=
EXTT7=
EXTT8=
EXTT9=
EXTT10=
EXTT11=
EXTT12=
EXTT13=
EXTT14=
EXTT15=
PLAYORDER=
